#Comment line ignore any data following # character 
#Hierarchical Translation and Rotation (.htr) file 
[Header]	
#Header keywords are followed by a single value 
FileType HTR		#Single word string
DataType HTRS		#Translation followed by rotation and scale data
FileVersion 1		#integer
NumSegments 84		#integer
NumFrames 2		#integer
DataFrameRate 30		#integer, data frame rate in this file
EulerRotationOrder ZYX
CalibrationUnits mm
RotationUnits Degrees
GlobalAxisofGravity Y
BoneLengthAxis Y
ScaleFactor 1.00
[SegmentNames&Hierarchy]
#CHILD	PARENT
MASTER GLOBAL
root MASTER
chest root
L_mid_tent01 root
R_mid_tent01 root
spine01 root
Bip01_Neck chest
L_humerus chest
R_humerus chest
weapon_bone chest
Bip01_Head Bip01_Neck
eye_left_bone Bip01_Head
eye_right_bone Bip01_Head
L_forearm L_humerus
L_front_hand L_forearm
L_weapon_bone L_forearm
L_front_hand01_01 L_front_hand
L_front_hand02_01 L_front_hand
L_front_hand03_01 L_front_hand
L_front_hand01_02 L_front_hand01_01
L_front_hand02_02 L_front_hand02_01
L_front_hand03_02 L_front_hand03_01
R_forearm R_humerus
R_front_hand R_forearm
R_weapon_bone R_forearm
R_front_hand01_01 R_front_hand
R_front_hand02_01 R_front_hand
R_front_hand03_01 R_front_hand
R_front_hand01_02 R_front_hand01_01
R_front_hand02_02 R_front_hand02_01
R_front_hand03_02 R_front_hand03_01
null_rope01_connect L_mid_tent01
Rope1_Seg01 null_rope01_connect
Rope1_Seg02 Rope1_Seg01
Rope1_Seg03 Rope1_Seg02
Rope1_Seg04 Rope1_Seg03
Rope1_Seg05 Rope1_Seg04
Rope1_Seg06 Rope1_Seg05
Rope1_Seg07 Rope1_Seg06
Rope1_Seg09 Rope1_Seg07
L_mid_hand01 Rope1_Seg09
L_mid_hand02 Rope1_Seg09
L_mid_hand03 Rope1_Seg09
null_rope02_connect R_mid_tent01
Rope2_Seg01 null_rope02_connect
Rope2_Seg02 Rope2_Seg01
Rope2_Seg03 Rope2_Seg02
Rope2_Seg04 Rope2_Seg03
Rope2_Seg05 Rope2_Seg04
Rope2_Seg06 Rope2_Seg05
Rope2_Seg07 Rope2_Seg06
Rope2_Seg09 Rope2_Seg07
R_mid_hand01 Rope2_Seg09
R_mid_hand02 Rope2_Seg09
R_mid_hand03 Rope2_Seg09
spine02 spine01
spine03 spine02
pelvis spine03
null_rope03_connect pelvis
null_rope04_connect pelvis
Rope3_Seg01 null_rope03_connect
Rope3_Seg02 Rope3_Seg01
Rope3_Seg03 Rope3_Seg02
Rope3_Seg04 Rope3_Seg03
Rope3_Seg05 Rope3_Seg04
Rope3_Seg06 Rope3_Seg05
Rope3_Seg07 Rope3_Seg06
Rope3_Seg08 Rope3_Seg07
Rope3_Seg09 Rope3_Seg08
R_rear_hand01 Rope3_Seg09
R_rear_hand02 Rope3_Seg09
R_rear_hand03 Rope3_Seg09
Rope4_Seg01 null_rope04_connect
Rope4_Seg02 Rope4_Seg01
Rope4_Seg03 Rope4_Seg02
Rope4_Seg04 Rope4_Seg03
Rope4_Seg05 Rope4_Seg04
Rope4_Seg06 Rope4_Seg05
Rope4_Seg07 Rope4_Seg06
Rope4_Seg08 Rope4_Seg07
Rope4_Seg09 Rope4_Seg08
L_rear_hand01 Rope4_Seg09
L_rear_hand02 Rope4_Seg09
L_rear_hand03 Rope4_Seg09
[BasePosition]
#SegmentName Tx, Ty, Tz, Rx, Ry, Rz, BoneLength
MASTER 0.000000 0.000000 0.000000 -90.000000 0.000000 0.000000 10.000000 
root 0.000000 0.000000 0.000000 0.000000 0.000000 0.000000 10.000000 
chest 0.000000 0.000000 0.000000 0.000000 0.000000 0.000000 10.000000 
L_mid_tent01 0.000000 0.000000 0.000000 0.000000 0.000000 0.000000 10.000000 
R_mid_tent01 0.000000 0.000000 0.000000 0.000000 0.000000 0.000000 10.000000 
spine01 0.000000 0.000000 0.000000 0.000000 0.000000 0.000000 10.000000 
Bip01_Neck 0.000000 0.000000 0.000000 0.000000 0.000000 0.000000 10.000000 
L_humerus 0.000000 0.000000 0.000000 0.000000 0.000000 0.000000 10.000000 
R_humerus 0.000000 0.000000 0.000000 0.000000 0.000000 0.000000 10.000000 
weapon_bone 0.000000 0.000000 0.000000 0.000000 0.000000 0.000000 10.000000 
Bip01_Head 0.000000 0.000000 0.000000 0.000000 0.000000 0.000000 10.000000 
eye_left_bone 0.000000 0.000000 0.000000 0.000000 0.000000 0.000000 10.000000 
eye_right_bone 0.000000 0.000000 0.000000 0.000000 0.000000 0.000000 10.000000 
L_forearm 0.000000 0.000000 0.000000 0.000000 0.000000 0.000000 10.000000 
L_front_hand 0.000000 0.000000 0.000000 0.000000 0.000000 0.000000 10.000000 
L_weapon_bone 0.000000 0.000000 0.000000 0.000000 0.000000 0.000000 10.000000 
L_front_hand01_01 0.000000 0.000000 0.000000 0.000000 0.000000 0.000000 10.000000 
L_front_hand02_01 0.000000 0.000000 0.000000 0.000000 0.000000 0.000000 10.000000 
L_front_hand03_01 0.000000 0.000000 0.000000 0.000000 0.000000 0.000000 10.000000 
L_front_hand01_02 0.000000 0.000000 0.000000 0.000000 0.000000 0.000000 10.000000 
L_front_hand02_02 0.000000 0.000000 0.000000 0.000000 0.000000 0.000000 10.000000 
L_front_hand03_02 0.000000 0.000000 0.000000 0.000000 0.000000 0.000000 10.000000 
R_forearm 0.000000 0.000000 0.000000 0.000000 0.000000 0.000000 10.000000 
R_front_hand 0.000000 0.000000 0.000000 0.000000 0.000000 0.000000 10.000000 
R_weapon_bone 0.000000 0.000000 0.000000 0.000000 0.000000 0.000000 10.000000 
R_front_hand01_01 0.000000 0.000000 0.000000 0.000000 0.000000 0.000000 10.000000 
R_front_hand02_01 0.000000 0.000000 0.000000 0.000000 0.000000 0.000000 10.000000 
R_front_hand03_01 0.000000 0.000000 0.000000 0.000000 0.000000 0.000000 10.000000 
R_front_hand01_02 0.000000 0.000000 0.000000 0.000000 0.000000 0.000000 10.000000 
R_front_hand02_02 0.000000 0.000000 0.000000 0.000000 0.000000 0.000000 10.000000 
R_front_hand03_02 0.000000 0.000000 0.000000 0.000000 0.000000 0.000000 10.000000 
null_rope01_connect 0.000000 0.000000 0.000000 0.000000 0.000000 0.000000 10.000000 
Rope1_Seg01 0.000000 0.000000 0.000000 0.000000 0.000000 0.000000 10.000000 
Rope1_Seg02 0.000000 0.000000 0.000000 0.000000 0.000000 0.000000 10.000000 
Rope1_Seg03 0.000000 0.000000 0.000000 0.000000 0.000000 0.000000 10.000000 
Rope1_Seg04 0.000000 0.000000 0.000000 0.000000 0.000000 0.000000 10.000000 
Rope1_Seg05 0.000000 0.000000 0.000000 0.000000 0.000000 0.000000 10.000000 
Rope1_Seg06 0.000000 0.000000 0.000000 0.000000 0.000000 0.000000 10.000000 
Rope1_Seg07 0.000000 0.000000 0.000000 0.000000 0.000000 0.000000 10.000000 
Rope1_Seg09 0.000000 0.000000 0.000000 0.000000 0.000000 0.000000 10.000000 
L_mid_hand01 0.000000 0.000000 0.000000 0.000000 0.000000 0.000000 10.000000 
L_mid_hand02 0.000000 0.000000 0.000000 0.000000 0.000000 0.000000 10.000000 
L_mid_hand03 0.000000 0.000000 0.000000 0.000000 0.000000 0.000000 10.000000 
null_rope02_connect 0.000000 0.000000 0.000000 0.000000 0.000000 0.000000 10.000000 
Rope2_Seg01 0.000000 0.000000 0.000000 0.000000 0.000000 0.000000 10.000000 
Rope2_Seg02 0.000000 0.000000 0.000000 0.000000 0.000000 0.000000 10.000000 
Rope2_Seg03 0.000000 0.000000 0.000000 0.000000 0.000000 0.000000 10.000000 
Rope2_Seg04 0.000000 0.000000 0.000000 0.000000 0.000000 0.000000 10.000000 
Rope2_Seg05 0.000000 0.000000 0.000000 0.000000 0.000000 0.000000 10.000000 
Rope2_Seg06 0.000000 0.000000 0.000000 0.000000 0.000000 0.000000 10.000000 
Rope2_Seg07 0.000000 0.000000 0.000000 0.000000 0.000000 0.000000 10.000000 
Rope2_Seg09 0.000000 0.000000 0.000000 0.000000 0.000000 0.000000 10.000000 
R_mid_hand01 0.000000 0.000000 0.000000 0.000000 0.000000 0.000000 10.000000 
R_mid_hand02 0.000000 0.000000 0.000000 0.000000 0.000000 0.000000 10.000000 
R_mid_hand03 0.000000 0.000000 0.000000 0.000000 0.000000 0.000000 10.000000 
spine02 0.000000 0.000000 0.000000 0.000000 0.000000 0.000000 10.000000 
spine03 0.000000 0.000000 0.000000 0.000000 0.000000 0.000000 10.000000 
pelvis 0.000000 0.000000 0.000000 0.000000 0.000000 0.000000 10.000000 
null_rope03_connect 0.000000 0.000000 0.000000 0.000000 0.000000 0.000000 10.000000 
null_rope04_connect 0.000000 0.000000 0.000000 0.000000 0.000000 0.000000 10.000000 
Rope3_Seg01 0.000000 0.000000 0.000000 0.000000 0.000000 0.000000 10.000000 
Rope3_Seg02 0.000000 0.000000 0.000000 0.000000 0.000000 0.000000 10.000000 
Rope3_Seg03 0.000000 0.000000 0.000000 0.000000 0.000000 0.000000 10.000000 
Rope3_Seg04 0.000000 0.000000 0.000000 0.000000 0.000000 0.000000 10.000000 
Rope3_Seg05 0.000000 0.000000 0.000000 0.000000 0.000000 0.000000 10.000000 
Rope3_Seg06 0.000000 0.000000 0.000000 0.000000 0.000000 0.000000 10.000000 
Rope3_Seg07 0.000000 0.000000 0.000000 0.000000 0.000000 0.000000 10.000000 
Rope3_Seg08 0.000000 0.000000 0.000000 0.000000 0.000000 0.000000 10.000000 
Rope3_Seg09 0.000000 0.000000 0.000000 0.000000 0.000000 0.000000 10.000000 
R_rear_hand01 0.000000 0.000000 0.000000 0.000000 0.000000 0.000000 10.000000 
R_rear_hand02 0.000000 0.000000 0.000000 0.000000 0.000000 0.000000 10.000000 
R_rear_hand03 0.000000 0.000000 0.000000 0.000000 0.000000 0.000000 10.000000 
Rope4_Seg01 0.000000 0.000000 0.000000 0.000000 0.000000 0.000000 10.000000 
Rope4_Seg02 0.000000 0.000000 0.000000 0.000000 0.000000 0.000000 10.000000 
Rope4_Seg03 0.000000 0.000000 0.000000 0.000000 0.000000 0.000000 10.000000 
Rope4_Seg04 0.000000 0.000000 0.000000 0.000000 0.000000 0.000000 10.000000 
Rope4_Seg05 0.000000 0.000000 0.000000 0.000000 0.000000 0.000000 10.000000 
Rope4_Seg06 0.000000 0.000000 0.000000 0.000000 0.000000 0.000000 10.000000 
Rope4_Seg07 0.000000 0.000000 0.000000 0.000000 0.000000 0.000000 10.000000 
Rope4_Seg08 0.000000 0.000000 0.000000 0.000000 0.000000 0.000000 10.000000 
Rope4_Seg09 0.000000 0.000000 0.000000 0.000000 0.000000 0.000000 10.000000 
L_rear_hand01 0.000000 0.000000 0.000000 0.000000 0.000000 0.000000 10.000000 
L_rear_hand02 0.000000 0.000000 0.000000 0.000000 0.000000 0.000000 10.000000 
L_rear_hand03 0.000000 0.000000 0.000000 0.000000 0.000000 0.000000 10.000000 
#Beginning of Data. Separated by tabs
#Fr	Tx	Ty	Tz	Rx	Ry	Rz	SF
[MASTER]
1 -1922.307251 -3415.458984 2008.170166 0.001346 0.001923 -20.001186 4403.790527
2 -1869.268188 -3327.278320 1965.587646 0.001346 0.001923 -20.001186 4292.840332
[root]
1 -16.502304 9.363708 1448.320068 -91.728889 -11.584497 -89.471619 1448.444336
2 -12.813410 -32.358170 1466.385132 -90.930145 -9.094847 -89.988998 1466.798096
[chest]
1 -84.512650 -34.090519 0.000000 -13.283158 -9.084053 166.837173 91.129311
2 -84.512650 -34.090519 0.000000 -10.626318 -8.483692 165.919922 91.129311
[L_mid_tent01]
1 27.298887 22.179258 -249.918747 -20.661392 12.026043 12.983022 252.381714
2 27.298887 22.179260 -249.918747 -22.852007 17.217731 16.341475 252.381714
[R_mid_tent01]
1 23.228794 24.509907 226.238495 -165.192200 -17.956036 24.056787 228.744751
2 23.228794 24.509907 226.238495 179.021576 -20.878508 53.435669 228.744751
[spine01]
1 -0.361383 -0.195265 0.000000 -0.000001 -0.000007 22.052340 0.410763
2 -0.361383 -0.195265 0.000000 -0.000001 -0.000007 22.052340 0.410763
[Bip01_Neck]
1 165.484543 71.581718 0.000119 176.643677 -1.657967 43.431911 180.302734
2 165.484543 71.581718 0.000119 176.643677 -1.657967 43.431911 180.302734
[L_humerus]
1 -13.983130 -135.272980 -120.471481 178.964996 1.892241 -146.979980 181.680161
2 -13.983130 -135.272980 -120.471481 178.964996 1.892242 -146.979980 181.680161
[R_humerus]
1 -13.983309 -135.273102 125.287651 176.357590 6.146129 -145.149719 184.909012
2 -13.983309 -135.273102 125.287651 176.357590 6.146128 -145.149719 184.909012
[weapon_bone]
1 235.964890 -300.705902 0.000000 0.000000 -89.951546 -128.212341 382.234833
2 235.964890 -300.705902 0.000000 0.000000 -89.951546 -128.212341 382.234833
[Bip01_Head]
1 213.444199 185.715332 11.776886 4.962490 2.797846 -43.898743 283.173615
2 213.441986 185.721680 11.694901 4.935822 2.797757 -43.898933 283.172729
[eye_left_bone]
1 -24.626970 125.451866 -64.772606 0.000000 -90.000000 -99.840431 143.318359
2 -24.626970 125.451866 -64.772606 0.000000 -90.000000 -99.840431 143.318359
[eye_right_bone]
1 -24.626970 125.451866 64.327362 0.000000 -89.965736 80.156380 143.117676
2 -24.626970 125.451866 64.327362 0.000000 -89.965736 80.156380 143.117676
[L_forearm]
1 322.776093 0.000000 -0.000119 0.001130 -0.002057 -147.582291 322.776093
2 322.776093 0.000000 -0.000119 0.001130 -0.002057 -147.582275 322.776093
[L_front_hand]
1 241.149185 -0.042021 -3.300071 -178.667953 -1.835447 -27.422350 241.171753
2 241.149185 -0.042021 -3.300071 -178.649948 -1.836147 -27.422699 241.171753
[L_weapon_bone]
1 156.183838 0.000000 0.000000 0.000014 0.000007 0.000001 156.183838
2 156.183838 0.000000 0.000000 0.000014 0.000007 0.000001 156.183838
[L_front_hand01_01]
1 86.095154 20.947098 -0.655860 -0.366594 -0.477154 75.385574 88.609184
2 86.095154 20.947098 -0.655860 -0.366568 -0.477174 75.379333 88.609184
[L_front_hand02_01]
1 86.935165 -11.437475 24.513514 154.399796 -59.883835 -61.369587 91.046425
2 86.935165 -11.437475 24.513514 154.399796 -59.883835 -61.369587 91.046425
[L_front_hand03_01]
1 86.637497 -14.123976 -20.424902 -153.913849 58.118122 -62.702866 90.126129
2 86.637497 -14.123976 -20.424902 -153.913849 58.118122 -62.702866 90.126129
[L_front_hand01_02]
1 71.020905 -0.000179 0.000030 0.000332 -0.002324 -106.280815 71.020905
2 71.020905 -0.000179 0.000030 0.000332 -0.002324 -106.268463 71.020905
[L_front_hand02_02]
1 71.020927 -0.000119 0.000060 0.000332 -0.002324 -106.280815 71.020927
2 71.020927 -0.000119 0.000060 0.000332 -0.002324 -106.268463 71.020927
[L_front_hand03_02]
1 71.020905 -0.000060 0.000060 0.000332 -0.002324 -106.280815 71.020905
2 71.020905 -0.000060 0.000060 0.000332 -0.002324 -106.268463 71.020905
[R_forearm]
1 322.776428 -0.000060 0.000030 0.114825 0.181654 -148.389832 322.776428
2 322.776428 -0.000060 0.000030 0.114825 0.181654 -148.389832 322.776428
[R_front_hand]
1 238.847015 -0.006795 2.210259 -2.635298 -10.645461 -26.312506 238.857239
2 238.847015 -0.006795 2.210259 -2.635298 -10.645461 -26.312506 238.857239
[R_weapon_bone]
1 155.664093 0.002503 -0.000030 0.003487 0.001180 -90.988930 155.664078
2 155.664093 0.002503 -0.000030 0.003487 0.001180 -90.988930 155.664078
[R_front_hand01_01]
1 87.624611 14.231146 22.918642 -154.633499 -59.950619 61.746044 91.683487
2 87.624611 14.231146 22.918642 -154.622818 -59.946747 61.733040 91.683487
[R_front_hand02_01]
1 89.356956 14.367283 -19.491137 154.602661 58.302849 63.744389 92.579636
2 89.356956 14.367283 -19.491137 154.602661 58.302849 63.744389 92.579636
[R_front_hand03_01]
1 87.286232 -22.307278 -0.143439 0.162155 -0.423168 -75.767921 90.091743
2 87.286232 -22.307278 -0.143439 0.162155 -0.423168 -75.767921 90.091743
[R_front_hand01_02]
1 71.020905 0.000060 0.000119 0.002325 -0.000326 105.954903 71.020905
2 71.020905 0.000060 0.000119 0.002325 -0.000325 105.909157 71.020905
[R_front_hand02_02]
1 71.020844 -0.000030 -0.000119 0.002325 -0.000326 105.954903 71.020836
2 71.020844 -0.000030 -0.000119 0.002325 -0.000325 105.909157 71.020836
[R_front_hand03_02]
1 71.020905 0.000000 0.000030 0.002325 -0.000326 105.954903 71.020905
2 71.020905 0.000000 0.000030 0.002325 -0.000325 105.909157 71.020905
[null_rope01_connect]
1 328.732483 0.000000 -0.000238 -128.573715 -51.951405 -148.968658 328.732483
2 328.732483 0.000000 -0.000238 -130.449326 -48.041077 -155.007065 328.732483
[Rope1_Seg01]
1 -0.000153 0.000000 0.000000 0.913415 0.229059 -149.910980 0.000153
2 -0.000152 0.000000 0.000000 2.544684 -2.899605 -144.834702 0.000152
[Rope1_Seg02]
1 139.999863 -0.000179 0.000000 4.689282 1.712438 3.329575 139.999863
2 139.999863 -0.000179 0.000000 1.692179 0.400687 1.115554 139.999863
[Rope1_Seg03]
1 139.999924 0.000060 -0.000060 4.949087 2.316011 2.825244 139.999924
2 139.999924 0.000060 -0.000060 -1.173255 -0.376231 -0.677046 139.999924
[Rope1_Seg04]
1 139.999924 -0.000060 -0.000119 1.143174 2.783843 -1.687371 139.999924
2 139.999924 -0.000060 -0.000119 -5.855385 -1.749687 -3.916429 139.999924
[Rope1_Seg05]
1 139.999832 0.000119 -0.000060 26.671577 5.034289 19.012283 139.999832
2 139.999832 0.000119 -0.000060 42.307049 6.903743 23.498739 139.999832
[Rope1_Seg06]
1 139.999954 0.000119 -0.000060 25.342714 9.131576 12.404626 139.999954
2 139.999954 0.000119 -0.000060 24.158064 12.791269 8.211276 139.999954
[Rope1_Seg07]
1 139.999985 0.000060 0.000000 8.295045 5.164319 2.565528 139.999985
2 139.999985 0.000060 0.000000 6.447823 5.694523 0.902964 139.999985
[Rope1_Seg09]
1 121.602913 0.000119 -0.000089 -89.793175 -1.359789 0.847147 121.602913
2 121.602913 0.000119 -0.000089 -89.793175 -1.359789 0.847147 121.602913
[L_mid_hand01]
1 103.859421 1.038730 8.195221 130.544373 -67.584534 -38.866943 104.187431
2 103.859421 1.038730 8.195221 129.242477 -66.931091 -37.458961 104.187431
[L_mid_hand02]
1 105.572853 -4.139662 -10.864139 -168.923172 43.409309 -73.498886 106.211075
2 105.572853 -4.139662 -10.864139 -168.136536 43.236561 -72.353096 106.211075
[L_mid_hand03]
1 104.641464 17.579376 -3.913581 -6.012627 17.808174 74.893669 106.179977
2 104.641464 17.579376 -3.913581 -6.285014 17.719219 74.000862 106.179977
[null_rope02_connect]
1 328.732849 0.000179 -0.000119 162.029404 72.463326 -95.853065 328.732849
2 328.732849 0.000179 -0.000119 161.914520 76.505020 -66.069847 328.732849
[Rope2_Seg01]
1 0.000153 0.000000 0.000000 -23.747149 6.008400 -71.155235 0.000153
2 0.000152 0.000000 0.000000 -61.741947 -21.243572 -84.093346 0.000152
[Rope2_Seg02]
1 139.999741 -0.000060 -0.000119 -9.725809 5.961890 -13.026058 139.999756
2 139.999741 -0.000060 -0.000119 10.468706 8.362556 6.567788 139.999756
[Rope2_Seg03]
1 140.000107 0.000030 0.000000 -2.409220 5.475255 -5.726897 140.000107
2 140.000107 0.000030 0.000000 11.631891 11.118217 9.100363 140.000107
[Rope2_Seg04]
1 139.999802 0.000000 -0.000060 -4.515978 4.627582 -10.513157 139.999802
2 139.999802 0.000000 -0.000060 5.482583 12.544580 3.653541 139.999802
[Rope2_Seg05]
1 139.999985 -0.000060 0.000119 -2.646972 3.051602 -8.171778 139.999985
2 139.999985 -0.000060 0.000119 -5.114525 1.013999 -13.092422 139.999985
[Rope2_Seg06]
1 139.999893 -0.000030 -0.000119 -0.859237 1.751516 -3.548714 139.999893
2 139.999893 -0.000030 -0.000119 -1.877190 1.096377 -6.351156 139.999893
[Rope2_Seg07]
1 139.999893 0.000060 -0.000060 -0.465637 1.145267 -2.209034 139.999893
2 139.999893 0.000060 -0.000060 -0.691437 1.166260 -2.958489 139.999893
[Rope2_Seg09]
1 121.338966 0.000089 -0.000060 33.793236 -1.359788 -0.847141 121.338966
2 121.338966 0.000089 -0.000060 33.793236 -1.359788 -0.847141 121.338966
[R_mid_hand01]
1 104.680779 11.144459 -10.335981 -16.212063 45.237247 70.462852 105.778534
2 104.680779 11.144459 -10.335981 -16.562792 45.133286 69.965408 105.778534
[R_mid_hand02]
1 104.070427 2.443552 8.231699 49.067368 -67.749771 39.286453 104.424065
2 104.070427 2.443552 8.231699 49.649654 -67.470848 38.658398 104.424065
[R_mid_hand03]
1 106.028137 -11.221827 -5.996406 -177.101105 15.551026 -76.585571 106.788818
2 106.028137 -11.221827 -5.996406 -176.996689 15.531745 -76.202309 106.788818
[spine02]
1 129.756927 0.001550 0.000119 0.360061 -4.044797 -12.915058 129.756927
2 129.756927 0.001550 0.000119 0.366632 -4.044137 -13.008280 129.756927
[spine03]
1 78.613892 0.081482 -4.899063 1.896495 3.831288 16.473045 78.766434
2 78.613892 0.081483 -4.899063 1.900149 3.829471 16.530039 78.766434
[pelvis]
1 169.435242 0.051022 0.000000 -0.060465 -0.180225 14.087930 169.435257
2 169.435242 0.051022 0.000000 -0.060652 -0.180163 14.206573 169.435257
[null_rope03_connect]
1 -1.257226 -2.466202 137.391083 -91.670494 -70.240898 153.468414 137.418976
2 -1.257226 -2.466202 137.391083 -89.369415 -69.882629 148.732666 137.418976
[null_rope04_connect]
1 -1.259640 -2.480268 -137.844437 -91.670494 -70.240898 153.468414 137.872513
2 -1.259640 -2.480268 -137.844437 -89.369415 -69.882629 148.732666 137.872513
[Rope3_Seg01]
1 0.000000 0.000000 0.000000 -2.479177 28.658863 -116.801697 0.000000
2 0.000000 0.000001 0.000000 -2.964881 30.288736 -116.702721 0.000001
[Rope3_Seg02]
1 139.999924 -0.000119 0.000060 1.547687 -2.000522 3.863637 139.999924
2 139.999924 -0.000119 0.000060 1.379263 -1.698167 3.889782 139.999924
[Rope3_Seg03]
1 139.999924 -0.000119 0.000119 1.580765 -2.281615 4.735650 139.999924
2 139.999924 -0.000119 0.000119 1.383019 -1.921587 4.713845 139.999924
[Rope3_Seg04]
1 139.999924 0.000119 0.000000 1.961743 -3.906996 8.877280 139.999924
2 139.999924 0.000119 0.000000 1.615322 -3.207832 8.445264 139.999924
[Rope3_Seg05]
1 139.999924 -0.000238 0.000060 -0.040246 0.293141 -0.913407 139.999924
2 139.999924 -0.000238 0.000060 -0.081960 0.441015 -1.165869 139.999924
[Rope3_Seg06]
1 139.999893 -0.000119 -0.000060 -1.589145 2.795203 -7.285275 139.999893
2 139.999893 -0.000119 -0.000060 -1.270518 2.437330 -6.910935 139.999893
[Rope3_Seg07]
1 139.999771 0.000060 -0.000119 -0.366366 1.115922 -2.737275 139.999771
2 139.999771 0.000060 -0.000119 -0.243785 0.995379 -2.626952 139.999771
[Rope3_Seg08]
1 139.999985 -0.000060 0.000000 -0.022869 0.678968 -1.635586 139.999985
2 139.999985 -0.000060 0.000000 0.047591 0.610699 -1.590674 139.999985
[Rope3_Seg09]
1 90.185997 -0.000179 -0.000060 89.793228 -1.359877 -0.847183 90.185997
2 90.185997 -0.000179 -0.000060 89.793228 -1.359877 -0.847183 90.185997
[R_rear_hand01]
1 103.366196 -6.073594 -10.757982 -177.714203 24.565960 -73.910950 104.101845
2 103.366196 -6.073594 -10.757982 -177.501556 24.545221 -73.407959 104.101845
[R_rear_hand02]
1 100.509819 12.039542 -7.992327 -12.874829 36.868488 72.167213 101.543350
2 100.509819 12.039542 -7.992327 -13.210595 36.766563 71.607780 101.543350
[R_rear_hand03]
1 101.539970 5.215704 5.435467 71.484581 -71.816628 21.513813 101.819031
2 101.539970 5.215704 5.435467 71.918968 -71.383453 21.055584 101.819031
[Rope4_Seg01]
1 0.000000 0.000000 0.000000 -111.742172 20.054050 -142.080902 0.000000
2 -0.000001 0.000000 0.000000 -113.874062 22.222248 -142.806427 0.000001
[Rope4_Seg02]
1 139.999985 0.000060 0.000119 -2.053287 -4.379972 0.669254 139.999985
2 139.999985 0.000060 0.000119 -2.102625 -4.399656 0.661612 139.999985
[Rope4_Seg03]
1 139.999924 0.000000 -0.000238 -1.884861 -4.966485 0.578512 139.999924
2 139.999924 0.000000 -0.000238 -1.928981 -4.986306 0.565916 139.999924
[Rope4_Seg04]
1 139.999985 0.000000 0.000119 -1.560084 -10.808395 -1.505215 139.999985
2 139.999985 0.000000 0.000119 -1.534732 -11.164050 -1.721987 139.999985
[Rope4_Seg05]
1 139.999802 -0.000060 -0.000119 -1.212925 -4.303003 1.368766 139.999802
2 139.999802 -0.000060 -0.000119 -1.243651 -3.999306 1.505076 139.999802
[Rope4_Seg06]
1 139.999924 0.000000 0.000060 0.021008 10.397285 6.438076 139.999924
2 139.999924 0.000000 0.000060 -0.010837 11.143430 6.956744 139.999924
[Rope4_Seg07]
1 139.999802 0.000000 0.000000 -0.216988 5.939051 3.616125 139.999802
2 139.999802 0.000000 0.000000 -0.326233 6.181380 3.838140 139.999802
[Rope4_Seg08]
1 139.999924 0.000000 0.000119 -1.887648 2.160295 1.603661 139.999924
2 139.999924 0.000000 0.000119 -1.963412 2.271897 1.699321 139.999924
[Rope4_Seg09]
1 90.185791 0.000060 0.000060 -135.617828 2.228885 0.850567 90.185791
2 90.185791 0.000060 0.000060 -135.617828 2.228885 0.850567 90.185791
[L_rear_hand01]
1 101.696655 -8.392275 -7.654577 -12.874829 -36.868488 107.832764 102.329041
2 101.696655 -8.392275 -7.654577 -14.225129 -36.428967 110.098549 102.329041
[L_rear_hand02]
1 102.726799 -1.568258 5.773216 71.484581 71.816628 158.486160 102.900848
2 102.726799 -1.568258 5.773216 73.119141 70.038223 160.218079 102.900848
[L_rear_hand03]
1 104.552910 9.721220 -10.420293 -177.714203 -24.565960 -106.089035 105.519653
2 104.552910 9.721220 -10.420293 -176.859985 -24.478331 -108.136047 105.519653
